# xmcd
#
# Track frame offsets:
#	150
#	19390
#	34055
#	59115
#	76740
#	97430
#	123490
#	137580
#	158260
#	174230
#	197895
#	221960
#
# Disc length: 3211 seconds
#
# Revision: 0
# Processed by: cddbd v1.5.2PL0 Copyright (c) Steve Scherf et al.
# Submitted via: dBpowerAMP V4.0
#
DISCID=ab0c890c
DTITLE=Eric Burdon and the Animals - Live In Poughkeepsie. N.Y., CD1
DYEAR=1983
DGENRE=Blues
TTITLE0=It's Too Late
TTITLE1=Melt Down
TTITLE2=Don't Let Me Be Misunderstood
TTITLE3=The Night
TTITLE4=My Favourite Enemy
TTITLE5=Trying To Get To You
TTITLE6=Loose Change
TTITLE7=Just Can't Get Enough
TTITLE8=I'm Crying
TTITLE9=No John No
TTITLE10=Bring It On Home To Me
TTITLE11=Prisoner Ot The Light
EXTD=
EXTT0=
EXTT1=
EXTT2=
EXTT3=
EXTT4=
EXTT5=
EXTT6=
EXTT7=
EXTT8=
EXTT9=
EXTT10=
EXTT11=
PLAYORDER=
